
<svg version="1.0" xmlns="http://www.w3.org/2000/svg"
 width="1280.000000pt" height="911.000000pt" viewBox="0 0 1280.000000 911.000000"
 preserveAspectRatio="xMidYMid meet">
    <g transform="translate(0.000000,911.000000) scale(0.100000,-0.100000)"
    fill="#000000" stroke="none">
        <path d="M5852 8023 l3 -658 350 0 c380 0 447 7 562 60 108 49 225 188 263
        313 42 137 45 384 5 537 -38 149 -146 291 -265 348 -104 51 -162 57 -558 57
        l-362 0 2 -657z m672 328 c62 -31 100 -89 117 -180 16 -90 7 -323 -14 -371
        -22 -49 -54 -88 -89 -106 -35 -18 -197 -36 -245 -28 l-33 6 0 355 0 355 108
        -4 c87 -3 116 -8 156 -27z"/>
        <path d="M5312 5768 l3 -663 203 -3 202 -2 0 162 1 163 104 110 c57 60 106
        108 108 105 3 -3 66 -125 142 -272 l137 -268 249 0 c137 0 249 2 249 5 0 4
        -443 733 -487 801 -12 19 2 36 222 265 129 134 235 247 235 252 0 4 -120 6
        -267 5 l-267 -3 -211 -245 -210 -245 -3 248 -2 247 -205 0 -205 0 2 -662z"/>
        <path d="M11327 6414 c-4 -4 -7 -301 -7 -660 l0 -653 33 -6 c17 -3 104 -5 192
        -3 l160 3 5 354 c4 262 8 350 16 340 6 -8 114 -165 239 -349 126 -184 233
        -338 239 -342 6 -5 94 -7 196 -5 l185 2 0 660 0 660 -190 0 -190 0 -5 -360 -5
        -359 -245 359 -245 360 -186 3 c-102 1 -188 -1 -192 -4z"/>
        <path d="M4745 4179 c-280 -33 -477 -201 -541 -464 -25 -98 -25 -336 -1 -425
        31 -118 83 -208 166 -290 91 -90 174 -134 306 -161 149 -31 381 -19 486 25 33
        14 35 13 80 -20 75 -55 221 -144 236 -144 12 0 113 194 113 217 0 4 -28 23
        -63 41 -34 19 -75 44 -91 57 l-29 23 20 28 c37 53 74 135 95 212 17 62 21 106
        21 227 0 171 -18 260 -75 368 -45 86 -155 194 -240 235 -130 63 -314 90 -483
        71z m240 -333 c28 -13 60 -34 72 -47 57 -62 90 -206 79 -349 -5 -84 -29 -184
        -45 -194 -4 -3 -38 15 -75 40 -137 92 -164 94 -199 17 -14 -32 -27 -64 -29
        -71 -2 -6 28 -29 66 -50 93 -51 95 -62 9 -62 -129 0 -212 63 -250 189 -25 81
        -25 297 0 368 44 124 124 183 252 183 53 0 82 -6 120 -24z"/>
    </g>
</svg>
