<svg width="199" height="165" viewBox="0 0 199 165" fill="none" xmlns="http://www.w3.org/2000/svg">
<g id="Welcome">
<path id="Dot" d="M199 151C199 158.18 193.18 164 186 164C178.82 164 173 158.18 173 151C173 143.82 178.82 138 186 138C193.18 138 199 143.82 199 151Z" fill="#6DAFFE"/>
<g id="O">
<g id="O_2">
<mask id="path-2-inside-1_3_21" fill="white">
<path d="M172 128C172 147.882 155.882 164 136 164C116.118 164 100 147.882 100 128C100 108.118 116.118 92 136 92C155.882 92 172 108.118 172 128Z"/>
</mask>
<path d="M172 128C172 147.882 155.882 164 136 164C116.118 164 100 147.882 100 128C100 108.118 116.118 92 136 92C155.882 92 172 108.118 172 128Z" stroke="#1C1B20" stroke-width="32" mask="url(#path-2-inside-1_3_21)"/>
</g>
</g>
<g id="H">
<path id="Waag" d="M17.0263 37.1309L37.8148 37.024" stroke="#1C1B20" stroke-width="16"/>
<path id="Senk1" d="M9.36998 73.0044L9.3763 0.999999" stroke="#1C1B20" stroke-width="16"/>
<path id="Senk2" d="M45.37 73.0044L45.3763 0.999999" stroke="#1C1B20" stroke-width="16"/>
</g>
<g id="L1">
<path id="Waag_2" d="M1 156.105L44 156.105" stroke="#1C1B20" stroke-width="16"/>
<path id="Senk" d="M8.89939 164.004L8.90572 92" stroke="#1C1B20" stroke-width="16"/>
</g>
<g id="L2">
<path id="Waag_3" d="M56 156.105L99 156.105" stroke="#1C1B20" stroke-width="16"/>
<path id="Senk_2" d="M63.8994 164.004L63.9057 92" stroke="#1C1B20" stroke-width="16"/>
</g>
<g id="E">
<path id="Waag3" d="M63.5 8.99997L100 9.00002" stroke="#1C1B20" stroke-width="16"/>
<path id="Waag1" d="M64 65L100.125 65.0434" stroke="#1C1B20" stroke-width="16"/>
<path id="Waag2" d="M78.9999 36.0584L99 35.9971" stroke="#1C1B20" stroke-width="16"/>
<path id="Senk_3" d="M71.37 73.0044L71.3763 0.999999" stroke="#1C1B20" stroke-width="16"/>
</g>
</g>
</svg>
