<svg xmlns="http://www.w3.org/2000/svg" version="1.1" width="600px" height="600px" viewBox="0 0 200 200" style="overflow:hidden!important;"><g id="svga-group-wrapper"><g id="svga-group-backs-single"></g><g id="svga-group-humanwrap-move" transform="matrix(1,0,0,1,0,-6)"><g id="svga-group-humanwrap"><g id="svga-group-hair-back-move" transform="matrix(1,-2.856368900253737e-18,2.856368900253737e-18,1,0,0)"><g id="svga-group-hair-back"></g></g><g id="svga-group-humanbody-back"><path id="SvgjsPath11286" d="M180.8 184.9c-2.3-3.4-38.9-17.8-38.9-17.8l-13.4-5.2-5.6-68.8H76.8L71.3 162l-13.4 5.2S21.4 181.6 19 185c-2.3 3.4-3.3 14.9-3.3 14.9V219h168.5v-19.2c-.1.1-1-11.5-3.4-14.9z" fill="#f0c7b1" stroke-width="none" opacity="1" stroke="none"></path></g><g id="svga-group-chinshadow-single"><path id="SvgjsPath11282" d="M85.7 157.38c2.95 2.5 14.4 2.34 17.66.34 3.2-1.96 8.57-7.52 22.92-23.62l-3.34-41H76.82l-4.05 50.95c6.27 6.89 11.03 11.73 12.93 13.33z" fill="#d19271" stroke-width="none" opacity="1" stroke="none"></path></g><g id="svga-group-humanbody-front"><path id="SvgjsPath11287" d="M184.5 219c-.1-6.4-.1-12.8-.1-19.2l-.3-.1s.1-.1.2 0c.1 0 .1.1.1.1v-.4l-.1-.5-.1-.9-.2-1.9c-.2-1.3-.4-2.5-.6-3.8-.2-1.3-.5-2.5-.9-3.8-.4-1.2-.8-2.5-1.5-3.6-.8-.9-1.9-1.5-2.9-2.1-1-.6-2.1-1.1-3.2-1.7-2.1-1.1-4.3-2.1-6.5-3.1-4.4-2-8.7-3.9-13.1-5.7-4.4-1.9-8.8-3.7-13.2-5.5l-13-5.2-1.2-16.9c-.4-5.7-.9-11.5-1.3-17.2l-1.3-17.2-1.5-17.3-.1-.8h-.8c-7.7 0-15.4.1-23.1.1l-23.1.2h-.5v.5L75 110.2l-1.3 17.2c-.8 11.4-1.8 22.8-2.8 34.2-5.6 2.1-11.2 4.2-16.7 6.4-5.6 2.2-11.2 4.5-16.8 6.9-2.8 1.2-5.6 2.4-8.3 3.6-2.8 1.3-5.5 2.5-8.2 4.1-.7.4-1.3.8-2 1.4-.2.1-.4.4-.5.6l-.3.6c-.2.4-.4.7-.5 1.1-.6 1.5-1 3-1.3 4.5-.6 3-1.1 6-1.4 9.1l-.1 19.1v.9h.9l42.1.1H100c14 0 28.1-.1 42.1-.2l42.1-.5h.3v-.3zm-84.5-1-42.1-.1-41.2.1-.1-18.1c.3-3 .6-5.9 1.2-8.9.3-1.4.6-2.9 1.1-4.2.1-.3.3-.7.4-.9l.2-.4.3-.3c.5-.4 1.1-.8 1.8-1.2 2.5-1.5 5.3-2.8 8-4.1 2.7-1.3 5.5-2.5 8.2-3.7 5.5-2.4 11.1-4.8 16.7-7.1s11.2-4.5 16.9-6.7l.2-.1v-.2c.9-11.5 1.7-23 2.7-34.4l1.4-17.2 1.5-16.7 22.6.2c7.4.1 14.8.1 22.3.1l1.3 16.4 1.5 17.2c.5 5.7 1 11.5 1.5 17.2l1.6 17.2v.3l.3.1 13.4 5c4.4 1.7 8.9 3.4 13.3 5.2 4.4 1.8 8.8 3.7 13.2 5.6 2.2 1 4.3 2 6.5 3 1.1.5 2.1 1.1 3.2 1.6 1 .6 2.1 1.2 2.9 2 .7 1.1 1.1 2.3 1.4 3.5.3 1.2.6 2.5.8 3.7.2 1.3.4 2.5.6 3.8l.2 1.9.1.9.1.5v.4c0 6.3 0 12.6-.1 18.9l-41.8-.5c-14 .1-28.1 0-42.1 0z" fill="#c27b55" stroke-width="none" opacity="1" stroke="none"></path><path id="SvgjsPath11288" d="M125.1 142.4s-1.8 23-9.1 32.9c0 0 7.9-25 9.1-32.9zm-34.5 16s5 7.9 11.5 10.1c0 0-9.5 2.2-11.5-10.1zM73.4 140c6.7 25.6 6.7 25.6 8.5 30.7 0 0 .4-12.6-8.5-30.7z" fill="#d19271" stroke-width="none" opacity="1" stroke="none"></path></g><g id="svga-group-clothes-single"><path id="SvgjsPath11174" d="M67.8 137.1c-1.1-1.6-5.2 6-4.4 9.6.8 3.7-.8 3.1-.6 6.8.2 3.7-2.5 3.9-2.7 5.4s.2 4.8.2 4.8-11.8 2.1-16.4 4.4-17.5 6.9-19.7 7.9-5.6 2.5-5.8 3.5-1.7-1.4-3.5 2.9-4.4 11.4-3.8 14.3-.4 9.8-.2 11.9c.2 2.1 0 11.4 0 11.4h177.5s-1.2-10.6-.6-14.2 0-13.1-.4-15.2-1.5-7.3-3.1-8.1c0 0 0-3.5-5-6s-15-5-19.7-6.8-15.6-6.4-17-6.9-3.1-1.2-3.1-1.2l-1.9-.2s1.7-6.9 0-8.7-1.7-5.2-2.5-6 2.9-6.2-2.5-8.9c0 0 1.4 2.5-10.2 6.8s-31.2 3.3-41.2 1-12.6-7.3-13.4-8.5z" fill="#437FC7" stroke-width="none" opacity="1"></path><path id="SvgjsPath11175" d="M132 138.2zm-77 30.3c-2.4.7-4.9 1.4-7.3 2.1-2.4.8-4.8 1.4-7.2 2.6l-.5.3-.3.3-.7.6-1.5 1.1-3 2.3c1.1-.6 2.2-1.2 3.3-1.9.5-.3 1.1-.7 1.6-1l.8-.6.4-.3.3-.2c1.1-.5 2.3-.8 3.5-1.2l3.6-1.1c2.4-.7 4.8-1.5 7.2-2.3 1.2-.4 2.4-.9 3.6-1.4 1.2-.5 2.4-1 3.3-1.9-1.1.7-2.3 1-3.5 1.4-1.2.5-2.4.8-3.6 1.2zm134.4 51.4c-.3-3.1-.6-6.3-.7-9.5 0-1.6-.1-3.2.1-4.6.2-1.7.2-3.3.3-4.9 0-3.2-.1-6.4-.5-9.7-.2-1.7-.6-3.2-1-4.9-.2-.8-.5-1.6-.8-2.4l-.6-1.2c-.2-.3-.4-.6-.7-.9 0-.2-.1-.3-.1-.5l-.3-.9c-.2-.6-.5-1.1-.9-1.6-.7-1-1.6-1.8-2.5-2.4-1.9-1.3-4-2-6-2.8-4-1.4-8.1-2.6-12.1-3.9-2-.6-3.9-1.3-5.9-2.1l-5.9-2.4-5.8-2.2-2.9-1.2c-1-.4-2-.8-3-1.1h-.2l-.8-.1c.4-1.8.6-3.6.5-5.5-.1-.6-.1-1.2-.4-1.8-.1-.3-.3-.7-.6-1l-.2-.3c-.1-.1-.1-.2-.2-.2-.5-.7-.8-1.6-1.1-2.6-.1-.5-.3-1-.4-1.6-.1-.3-.2-.6-.4-.9 0-.1-.1-.1-.1-.2 0-.4.2-.9.3-1.5.1-.5.2-1.1.3-1.7.1-1.2-.1-2.5-.7-3.6-.7-1.1-1.7-1.9-2.7-2.4 0 0-1.4-.6-3.1-.9-1.8-.3-2.8-.4-2.8-.4s.3 4.5.4 5.8c-.6.3-1.1.6-1.7.8-2.7 1.2-5.4 2.2-8.2 2.9-5.7 1.3-11.6 1.8-17.5 1.8s-11.8-.4-17.6-1.5c-2.9-.6-5.7-1.4-8.3-2.8l-1.5-.9c-.1-.2-.1-.4-.1-.6 0-.5.4-5.2.4-5.4s-5.4.6-5.8.8c-.1 0-.2.1-.3.1-.3.2-.5.4-.7.6-.4.5-.7 1-1.1 1.6-.6 1.1-1.1 2.2-1.5 3.4-.4 1.2-.6 2.4-.5 3.7.2 1.2.5 2.4.1 3.6-.2.6-.4 1.2-.5 1.8-.1.6-.1 1.3-.1 1.9.1 1.2-.2 2.4-1.1 3.3-.4.4-.9.8-1.3 1.3-.2.3-.3.7-.3 1v.9c0 1.2.1 2.3.2 3.5-3.6.6-7.1 1.4-10.6 2.3-1.8.5-3.6 1-5.3 1.8-1.7.8-3.3 1.5-5 2.1-3.4 1.3-6.9 2.6-10.3 3.9-1.7.6-3.5 1.2-5.2 2-.8.4-1.7.7-2.5 1.2-.8.4-1.7.8-2.5 1.5-.2.2-.4.4-.6.7h-.4c-.3 0-.7.1-1 .2-.6.3-1 .8-1.3 1.2-.3.4-.5.9-.7 1.3-.7 1.7-1.4 3.4-2.1 5.2-.6 1.8-1.2 3.5-1.7 5.4-.2.9-.4 1.9-.5 2.9 0 .5-.1 1 0 1.6l.1.6v.6c.1 1.7 0 3.6-.1 5.4-.1 1.8-.3 3.7-.2 5.6.1 3.6 0 7.3 0 11v.9h.9l44.4-.4c14.8-.1 29.6-.2 44.4-.1 14.8 0 29.6.2 44.4.3l44.4.3h1l-.7-1.2zM137 153.3l.1.1c.1.1.1.2.2.4.1.4.2.8.2 1.3.1 1.9-.3 4.1-.8 6l-.3 1.1h.2c-.9.8-1.7 1.5-2.6 2.2.2-.5.3-1.1.4-1.6.1-.8.1-1.6 0-2.4-.1-.8-.3-1.6-.6-2.4-.3-.7-.6-1.4-1-2.1v-.2c1.5-.8 2.8-1.6 4.2-2.4zm-10.2 9.5-.1-.2c-.4-.9-.9-1.8-1.4-2.7 2.2-1.1 4.4-2.3 6.6-3.6l.1.1c.4.6.8 1.3 1.1 2 .3.7.6 1.4.7 2.2.2.8.3 1.5.3 2.3 0 .6 0 1.2-.1 1.8-1.4 1.2-2.8 2.3-4.3 3.3-1 .7-2.1 1.5-3.2 2.1 0-.1.1-.3.1-.4.1-1.1.1-2.3.1-3.4.1-1.2.2-2.4.1-3.5zm-4.3.6c-.2-.6-.5-1.2-.9-1.6l2.7-1.2c.1-.1.2-.1.3-.1.5.9.9 1.7 1.4 2.6.1 1.1.2 2.2.2 3.3.1 1.1.1 2.3.2 3.4v.6c-.3.1-.6.3-.8.4-.8.3-1.4.6-2.3.8-.3.1-.6.1-.9.2.2-1.7.3-3.4.4-5-.2-1.2-.1-2.3-.3-3.4zm-9.3 4.8c-.4-.8-.6-1.7-.8-2.6-.1-.4-.1-.7-.2-1.1l.9-.1c.7-.1 1.3-.2 1.9-.4l1-.2 1-.3c1.2-.4 2.5-.9 3.7-1.4.4.4.8.9.9 1.5.2.9.2 1.9.3 3l.2 5.1c-.5.1-.9.2-1.4.2-2.4.4-4.8.7-7.2 1 0-.1.1-.3.1-.4.1-.5.1-.9.1-1.4 0-1-.1-1.9-.5-2.9zm-19.9 3.9c.2.6.2 1.2.5 1.8.1.2.2.4.3.5-1.4 0-2.7-.1-4-.2-.4 0-.8-.1-1.2-.2l-.6-.1-.6-.2-2.4-.9h-.1c-.1-.7-.1-1.3-.2-2 0-.6-.1-1.1 0-1.7.1-.5.2-1.1.4-1.6s.4-1.1.4-1.7h.2c.6.1 1.2.3 1.9.4.3.1.6.2.9.2.3.1.7.2 1.1.2.9.1 1.7.1 2.5.1.1.6.2 1.1.2 1.7v.1c.2 1.2.4 2.4.7 3.6zm.8 1.7c-.2-.6-.2-1.2-.3-1.8-.1-1.2-.3-2.4-.4-3.7 0-.6-.1-1.1-.1-1.7h.6c5.2-.2 10.3-.9 15.5-1.7l2.1-.3c.1.4.1.8.2 1.1.2.9.5 1.9 1 2.7.4.7.6 1.7.7 2.6.1.6.1 1.2.1 1.9-1 .1-1.9.3-2.9.4-3.4.4-6.8.8-10.2.9-2 .1-3.9.2-5.9.2-.3-.1-.4-.3-.4-.6zm41.9-27.6s-.1 0 0 0c-.1-.1-.1 0 0 0zm-2.8-6.8c0-.1.1-.1.1-.1.5.3.9.7 1.1 1.2.4.8.6 1.6.5 2.6-.1.5-.1 1-.2 1.5s-.3 1-.4 1.7c0 .2 0 .4.1.8 0 .1.1.2.1.3l.2.2c.1.1.1.3.2.5.1.5.2 1 .4 1.5.3 1.1.6 2.2 1.3 3.3.1.1.2.3.3.4-1.3.6-2.6 1.2-4 1.8-.1-.9-.2-1.9-.5-2.8-.2-.7-.6-1.2-.7-1.8-.2-.5-.1-1 .1-1.7.1-.6.2-1.3.2-2s-.2-1.4-.5-2c-.3-.6-.6-1.2-1.1-1.7-.3-.3-.6-.6-.9-.8.3-.2.7-.4 1-.6.6-.4 1.3-.8 1.9-1.4.3-.2.6-.5.8-.9zm-6.7 4.4c1-.4 2-.9 2.9-1.4.8.7 1.3 1.6 1.6 2.5.2.6.3 1.2.2 1.8 0 .6-.2 1.2-.3 1.8-.1.3-.1.6-.2 1s0 .8.1 1.1c.2.7.5 1.3.7 1.8.3.9.5 1.9.5 2.9-2.2 1-4.5 2.1-6.8 3v-1.4c-.1-.9-.3-1.7-.7-2.6l-.6-1.2-.3-.6c-.1-.2-.2-.3-.3-.5-.2-.3-.2-.7-.2-.9.1-.3.3-.5.6-.6l.3-.1v-.2c-.1-1-.2-2-.4-2.9-.2-.8-.4-1.5-.8-2.2 1.3-.3 2.5-.8 3.7-1.3zm-3.8 1.4c.2.7.4 1.5.4 2.2.1.9.1 1.8.1 2.6-.4.2-.8.5-.9.9-.2.6-.1 1.1.1 1.5l.3.6c.1.2.2.3.3.5.2.4.3.7.5 1.1.3.8.5 1.6.6 2.3v1.7c-.2.1-.4.2-.6.2l-3 1.2c0-1.1-.1-2.1-.3-3.2-.1-.7-.3-1.3-.7-2-.1-.2-.2-.3-.3-.5-.1-.1-.2-.2-.2-.4-.1-.2-.2-.5-.3-.8-.1-.6 0-1.2.2-1.8.2-.6.4-1.3.4-2-.1-1.2-.6-2.3-1.3-3.2 1.7.1 3.2-.4 4.7-.9zm-4.8 1.4c.1 0 .1 0 0 0 .7.9 1 2.1 1 3.1 0 1.2-1.1 2.3-.9 3.9 0 .4.1.8.3 1.1.1.2.2.3.3.5.1.1.2.2.2.4.2.5.4 1.1.5 1.8.2 1.1.3 2.2.3 3.4-1.1.4-2.1.7-3.2 1-1.2.4-2.4.6-3.7.8l-.4.1c0-1.9-.4-3.7-1.4-5.3-.3-.5-.6-.7-.7-1.1-.1-.3-.1-.7.1-1.1.3-.7.9-1.5 1.6-2l.1-.1v-.1c0-1 0-2-.1-2.9-.1-.8-.2-1.6-.5-2.4 2.3-.4 4.4-.7 6.5-1.1zm-54.5-.4c-.1-1.1.2-2.4.5-3.5.4-1.2.8-2.3 1.4-3.4.3-.5.6-1.1 1-1.5.2-.2.4-.4.7-.6.2-.2.5-.2.7.1 1.5 2.6 3.8 4.6 6.5 6 2.6 1.4 5.5 2.3 8.4 2.9 2.9.6 5.8 1 8.8 1.3 2.9.3 5.9.5 8.9.6 3.8.1 7.5 0 11.3-.4.1.3.1.6.1.9 0 .5.1 1 0 1.4 0 .9-.1 1.8-.2 2.7-.8.5-1.5 1.2-1.9 2.1-.2.5-.3 1.1-.1 1.7.1.3.2.5.4.8.2.3.3.4.4.6.4.7.8 1.6 1 2.5.2.8.3 1.6.3 2.4l-2.6.2c-2.5.4-5.1.8-7.6 1.1-2.6.4-5.1.7-7.6 1-.3 0-.6.1-.9.1-.1-.2-.1-.4-.1-.7.1-1.2.6-2.5 1-3.8v-.2c0-2.1.1-4.3 0-6.5l.1-3.2c.1-1.1.1-2.2.3-3.2-.4 1-.5 2.1-.7 3.2-.2 1.1-.3 2.1-.4 3.2-.2 2.1-.2 4.3-.3 6.4-.2.6-.5 1.2-.7 1.9-.2.7-.3 1.4-.4 2.1 0 .2 0 .6.1.8-.7 0-1.3.1-1.9.1-.3 0-.5 0-.8-.1-.3-.1-.7-.1-1-.2-.7-.1-1.3-.2-1.9-.3h-.3c0-.3-.1-.6-.1-.9-.2-1.1-.3-2.2-.2-3.3.1-.5.2-1 .5-1.6.2-.6.3-1.2.4-1.8.2-1.2.2-2.4.2-3.5.1-1.2-.1-2.4-.2-3.5s-.2-2.3.3-3.4c-.7 1-.7 2.2-.8 3.4 0 1.2 0 2.3-.1 3.4-.1 1.2-.1 2.3-.3 3.4-.1.5-.2 1.1-.4 1.6s-.4 1.1-.5 1.7c-.2 1.2 0 2.5.2 3.6 0 .2.1.4.1.6-2.2-.2-4.3-.4-6.5-.5 2.2.5 4.4.9 6.6 1.4v.1c0 .5-.2 1-.3 1.6-.1.6-.2 1.1-.2 1.8 0 .6.1 1.2.1 1.8.1.6.2 1.2.4 1.8l-4.5-1.6c-1.7-.6-3.4-1.2-5.2-1.8 0-.4.1-.8.2-1.2.1-.3.2-.7.3-1 .1-.3.3-.7.2-1.1 0-.8-.3-1.5-.5-2.1-.2-.7-.2-1.3-.2-2 .1-1.3.8-2.6 1.4-3.8.6-1.1 1.1-2.4 1.2-3.7.6.1 1.2.3 1.7.4 1.8.4 3.8.7 5.7.4-.9-.1-1.9-.2-2.8-.5-.9-.2-1.8-.5-2.7-.7-.7-.2-1.3-.4-2-.6-.2-.6-.3-1.2-.4-1.9-.1-.7-.2-1.4 0-2.1.2-.7.3-1.4.5-2.1.2-.7.4-1.4.9-2-.6.5-.9 1.2-1.2 1.9-.3.7-.6 1.4-.8 2.1-.2.8-.2 1.6-.2 2.3 0 .5.1 1 .2 1.5-.8-.2-1.6-.5-2.5-.7-1.4-.4-2.9-.9-4.4-1.3v-1.2c0-.7 0-1.4-.1-2.1-.1-.6.2-1.3.4-1.9.5-1.3.9-2.7 1.6-3.8-.5.5-.8 1.1-1.2 1.7-.3.6-.7 1.2-.9 1.9-.1.3-.3.6-.4 1-.1.2-.1.3-.2.5 0 .1-.1.2-.1.3v.3c0 .7-.1 1.4-.1 2.1v.9c-.7-.2-1.3-.4-2-.5-.1-.9-.2-1.8-.1-2.7 0-.9.1-1.9.2-2.8.2-.9.4-1.8.7-2.7.3-.9.7-1.7 1.3-2.5-.7.7-1.2 1.5-1.7 2.3-.4.9-.8 1.8-1 2.7-.2.9-.4 1.9-.4 2.9-.1.8 0 1.6 0 2.4-.8-.2-1.7-.4-2.6-.6.4-.8.2-1.9 0-2.8zm11.8 22.9c-1.9-.7-3.9-1.4-5.8-2-.1-1.4 0-2.7.2-4 .2-.7.4-1.6.6-2.4.1-.8.1-1.6 0-2.5v.1-6.3c1.3.5 2.7.9 4.1 1.3.9.3 1.9.5 2.8.8-.1 1.2-.5 2.4-1.1 3.5-.7 1.3-1.3 2.6-1.4 4.2-.1.8.1 1.6.3 2.2.2.7.6 1.4.6 2 0 .3 0 .6-.1.9-.1.4-.1.7-.1 1.1-.2.4-.2.7-.1 1.1zm-6.3-3.7c.1.6.2 1.1.3 1.6-1.4-.5-2.8-.9-4.1-1.4-.1-1.2-.2-2.4-.2-3.6.1-.6.1-1.4.4-1.8.5-.6.8-1.3 1-2 .4-1.4.3-3-.1-4.4-.1-.4-.2-.7-.3-1v-.8c.1-.5.6-1 1-1.3.7.3 1.4.6 2.2.8v6.6c.1.7.1 1.5.1 2.3 0 .8-.2 1.5-.3 2.4-.1 1-.1 1.8 0 2.6zm-49.7 14.3zm-7.4 39.5c.1-3.4.2-6.8.1-10.3-.1-1.7.1-3.6.2-5.4.1-1.8.3-3.7.2-5.6l-.1-.7-.1-.7c-.1-.3-.1-.8 0-1.2.1-.8.2-1.7.4-2.6.4-1.7 1-3.5 1.6-5.2.6-1.7 1.3-3.4 1.9-5.1.3-.8.8-1.6 1.3-1.8.1-.1.2-.1.3-.1.1 0 .2 0 .6.1.1 0 .3 0 .5-.1.1 0 .2-.1.2-.2 1.5 3 3 5.9 4.5 8.8.8 1.6 1.6 3.1 2.3 4.7.3.8.7 1.6.9 2.3.2.8.3 1.7.5 2.5.3 1.7.5 3.5.7 5.2l.7 5.3c.4 3.4.9 6.7 1.5 10.1H11.8zm132.3.2c-14.8.1-29.6.3-44.4.3-14.8.1-29.6 0-44.4-.1l-25.3-.2c.1-3.4.1-6.8-.1-10.2-.2-3.6-.5-7.1-1-10.7-.1-.9-.3-1.8-.5-2.7-.2-1-.7-1.8-1-2.6-.8-1.6-1.7-3.2-2.7-4.7-1.8-2.8-3.6-5.5-5.7-8.1.1-.1.1-.1.1-.2s.1-.2.1-.2v-.1c0-.1.1-.2.3-.3.6-.5 1.4-.9 2.2-1.3.8-.4 1.6-.8 2.5-1.2 1.6-.8 3.4-1.4 5.1-2.1 3.4-1.4 6.9-2.7 10.2-4.1 1.7-.7 3.4-1.5 5-2.3 1.6-.8 3.4-1.3 5.1-1.8 3.5-1 7.1-1.8 10.7-2.6l.2-.1v-.2c-.2-1.2-.3-2.4-.3-3.7v-.9c0-.3.1-.5.2-.8.3-.5.8-.8 1.3-1.3.9-.9 1.3-2.3 1.2-3.6 0-.6 0-1.2.1-1.8.1-.6.3-1.1.5-1.8.1-.2.1-.4.2-.6.8.4 1.5.7 2.3 1-.4.4-.8.9-1 1.5-.1.4-.1.8-.1 1.2.1.4.2.7.3 1.1.4 1.3.5 2.6.2 3.9-.2.6-.3 1.3-.7 1.8-.1.1-.2.4-.3.6-.1.2-.1.4-.1.6v1.1c.1 1.2.3 2.4.6 3.5-1.3-.4-2.7-.9-4.1-1.3l4.2 1.8v.1-.1c4.9 2.2 9.9 4.3 14.9 6.3l4.8 1.9 2.4 1 .6.2.7.2c.5.1.9.3 1.4.3 3.6.5 7.1.4 10.6.2 6.9-.5 13.8-1.4 20.6-2.8.8-.2 1.7-.4 2.6-.6.9-.2 1.8-.6 2.5-1 .1 0 .1-.1.2-.1v.3c0-.1.1-.2.1-.4 1.5-.9 2.8-1.9 4.1-2.9 2.3-2 4.5-4.1 6.6-6.4l.7.1 1.8.2c.9.3 1.9.7 2.8 1.1l2.9 1.2 5.8 2.4 5.9 2.4c1.9.8 4 1.5 6 2.2 4 1.3 8.1 2.4 12 3.9 1.9.7 3.9 1.5 5.5 2.5.8.5 1.5 1.2 2 1.9.3.4.5.8.7 1.1.1.2.2.4.2.6.1.2.1.4.1.5v.4c-1.3.6-2.5 1.3-3.7 2.1-1.4 1.1-2.8 2.2-4 3.7-.6.7-1 1.6-1.4 2.5-.4.8-.6 1.7-.9 2.5-.6 1.7-1 3.4-1.5 5.1-.4 1.7-.8 3.4-1.1 5.2l-.3 2.7c-.1.9-.1 1.8-.1 2.8.4 3.3.6 6.5.8 9.9h-27.2zm27.3-.2c.5-3.3.8-6.6.7-9.9.1-1.6.4-3.3.7-5 .3-1.7.7-3.4 1.1-5.1.4-1.7.8-3.4 1.3-5s.9-3.3 1.8-4.7c.9-1.4 2.1-2.6 3.3-3.8 1-.9 2-1.8 3.1-2.6v.2l.5.1s.2.2.4.5.3.6.5.9c.3.6.5 1.4.8 2.1.4 1.5.8 3.1 1 4.5.4 3.1.5 6.3.5 9.4 0 1.6 0 3.2-.2 4.6-.2 1.7-.2 3.3-.1 5 .1 2.9.4 5.8.6 8.6l-16 .2z" fill="#184f58" stroke-width="none" opacity="1"></path></g><g id="svga-group-head" transform="matrix(1,-2.856368900253737e-18,2.856368900253737e-18,1,0,0)"><g id="svga-group-ears-left-move" transform="matrix(1,0,0,1,0,0)"><g id="svga-group-ears-left" transform="matrix(0.9499998000000001,0,0,0.9499998000000001,2.96028653744888,4.411868767399596)"><path id="SvgjsPath11184" d="M67.09 85.03s-3.12-7.36-5.69-9.71c-2.57-2.34-7.59-5.02-9.48-4.35-1.9.67 1.12 8.81 2.23 10.6 1.12 1.79 1.12 11.49 1.23 14.39.11 2.9 2.9 6.25 5.02 8.7 2.12 2.45 4.24-1.12 5.69-4.35 1.45-3.23 1-15.28 1-15.28z" fill="#f0c7b1" stroke-width="none" opacity="1" stroke="none"></path><path id="SvgjsPath11185" d="M65.92 91.31c-.33-2.85-5.11-11.21-6.86-12.8-1.76-1.59-5.69-4.44-5.77-3.52s2.26 5.69 2.34 8.54.17 10.96 1.09 12.72c.92 1.76 5.69 1.51 6.53-.17s2.67-4.77 2.67-4.77z" fill="#e1ac8f" stroke-width="none" opacity="1" stroke="none"></path><path id="SvgjsPath11186" d="M51.07 71.79c-.11.94.06 1.79.25 2.64.4 1.69.98 3.31 1.62 4.9.33.79.68 1.58 1.11 2.33.35.72.47 1.6.59 2.43.22 1.69.26 3.4.32 5.11.04 1.71.03 3.42.05 5.13.03.85-.04 1.71.14 2.62.17.89.52 1.72.93 2.5.82 1.56 1.87 2.94 2.96 4.28.27.33.55.67.83.99.13.16.29.33.47.5.16.18.38.32.6.45.46.25 1.07.32 1.58.14.49-.19.88-.49 1.21-.81.66-.65 1.13-1.41 1.57-2.16.43-.76.81-1.54 1.15-2.34.63-1.74.72-3.45.84-5.17.17-3.44.07-6.86-.15-10.29-.62-1.62-1.31-3.18-2.08-4.71-.79-1.52-1.59-3.06-2.7-4.42-.56-.69-1.24-1.27-1.92-1.8-.69-.53-1.41-1.01-2.15-1.47-1.49-.89-3.07-1.66-4.83-2.01-.44-.07-.91-.11-1.4.01-.22.02-.56.2-.71.44-.18.22-.23.47-.28.71zm.56.1c.04-.18.1-.36.19-.47.1-.11.16-.15.37-.18.35-.08.75-.02 1.14.05 1.6.33 3.13 1.13 4.58 1.96.73.42 1.44.88 2.11 1.38.68.51 1.32 1.03 1.85 1.67 1.07 1.27 1.97 2.74 2.81 4.22.83 1.48 1.63 3.01 2.37 4.53-.03 3.41-.11 6.84-.4 10.23-.16 1.68-.34 3.42-.92 4.9-.73 1.51-1.47 3.09-2.59 4.22-.28.27-.59.49-.9.61-.31.1-.61.06-.9-.09-.55-.33-1.09-1.11-1.65-1.73-1.09-1.3-2.14-2.64-2.94-4.1-.4-.73-.72-1.5-.9-2.28-.17-.76-.15-1.64-.19-2.49-.06-1.71-.14-3.42-.25-5.13-.11-1.71-.25-3.42-.48-5.12-.14-.85-.25-1.71-.66-2.52-.43-.72-.75-1.52-1.07-2.31-.62-1.59-1.13-3.22-1.44-4.89-.14-.84-.26-1.7-.13-2.46z" fill="#e1ac8f" stroke-width="none" opacity="1" stroke="none"></path><path id="SvgjsPath11187" d="M57.38 80.46c.58 1.22 1.11 2.47 1.51 3.75.4 1.29.75 2.59 1.06 3.9.29 1.31.56 2.63.72 3.97l-.08.02c-.42-1.28-.8-2.56-1.2-3.84-.39-1.28-.78-2.56-1.2-3.82-.41-1.27-.78-2.55-1.24-3.8-.38-1.05-.84-2.1-1.49-3 .37 1.58.79 3.15 1.13 4.74.19.9.36 1.8.49 2.71.07.46.13.92.17 1.38.05.46.04.98.04 1.39.05 1.78.28 3.6.53 5.39.14.9.28 1.79.47 2.67.09.44.2.88.32 1.3.01.02.01.04.02.06.04-.85.09-1.71.11-2.56.04-1.28.1-2.55.06-3.83l.08-.01c.17 1.27.2 2.56.25 3.84.03 1.28.04 2.56.05 3.84v.8l-.52-.59c-.4-.46-.51-.9-.68-1.34-.15-.45-.28-.89-.39-1.34-.23-.9-.42-1.8-.58-2.71-.31-1.82-.56-3.63-.58-5.51.09-1.79-.24-3.58-.47-5.39-.26-1.8-.5-3.62-.9-5.4l-.12-.54.35.42c.88 1.08 1.49 2.29 2.09 3.5z" fill="#c27b55" stroke-width="none" opacity="1" stroke="none"></path></g></g><g id="svga-group-ears-right-move" transform="matrix(1,0,0,1,0,0)"><g id="svga-group-ears-right" transform="matrix(0.9499998000000001,0,0,0.9499998000000001,7.040055778518678,4.411368658587648)"><path id="SvgjsPath11188" d="M132.91 85.03s3.12-7.36 5.69-9.71c2.57-2.34 7.59-5.02 9.48-4.35s-1.12 8.81-2.23 10.6c-1.12 1.79-1.12 11.49-1.23 14.39-.11 2.9-2.9 6.25-5.02 8.7-2.12 2.45-4.24-1.12-5.69-4.35-1.45-3.23-1-15.28-1-15.28z" fill="#f0c7b1" stroke-width="none" opacity="1" stroke="none"></path><path id="SvgjsPath11189" d="M134.08 91.31c.33-2.85 5.11-11.21 6.86-12.8 1.76-1.59 5.69-4.44 5.77-3.52.08.92-2.26 5.69-2.34 8.54s-.17 10.96-1.09 12.72c-.92 1.76-5.69 1.51-6.53-.17s-2.67-4.77-2.67-4.77z" fill="#e1ac8f" stroke-width="none" opacity="1" stroke="none"></path><path id="SvgjsPath11190" d="M148.66 71.07c-.15-.24-.49-.42-.71-.44-.49-.12-.96-.08-1.4-.01-1.76.35-3.34 1.12-4.83 2.01-.74.45-1.46.93-2.15 1.47-.68.53-1.36 1.1-1.92 1.8-1.11 1.36-1.91 2.9-2.7 4.42-.77 1.54-1.46 3.1-2.08 4.71-.23 3.43-.33 6.85-.15 10.29.12 1.72.22 3.44.84 5.17.34.79.72 1.58 1.15 2.34.44.76.91 1.51 1.57 2.16.33.32.72.62 1.21.81.51.18 1.11.11 1.58-.14.22-.14.44-.27.6-.45.18-.17.34-.34.47-.5.28-.32.55-.66.83-.99 1.09-1.34 2.14-2.72 2.96-4.28.4-.78.75-1.61.93-2.5.17-.92.11-1.77.14-2.62.02-1.71.01-3.42.05-5.13.05-1.71.1-3.42.32-5.11.12-.83.23-1.71.59-2.43.43-.76.78-1.54 1.11-2.33.64-1.59 1.21-3.21 1.62-4.9.18-.85.36-1.7.25-2.64-.06-.23-.11-.48-.28-.71zm-.42 3.27c-.31 1.66-.82 3.3-1.44 4.89-.32.79-.63 1.59-1.07 2.31-.41.81-.52 1.67-.66 2.52-.22 1.7-.37 3.41-.48 5.12-.11 1.71-.2 3.42-.25 5.13-.05.85-.02 1.73-.19 2.49-.18.79-.5 1.55-.9 2.28-.8 1.46-1.85 2.8-2.94 4.1-.56.62-1.1 1.4-1.65 1.73-.29.15-.59.19-.9.09-.31-.12-.62-.34-.9-.61-1.12-1.13-1.86-2.71-2.59-4.22-.58-1.47-.76-3.22-.92-4.9-.29-3.39-.37-6.82-.4-10.23.74-1.52 1.54-3.05 2.37-4.53.84-1.48 1.73-2.95 2.81-4.22.53-.63 1.17-1.16 1.85-1.67.67-.5 1.39-.96 2.11-1.38 1.45-.83 2.98-1.63 4.58-1.96.39-.07.8-.12 1.14-.05.21.03.27.07.37.18.09.11.15.29.19.47.13.77.01 1.63-.13 2.46z" fill="#e1ac8f" stroke-width="none" opacity="1" stroke="none"></path><path id="SvgjsPath11191" d="M142.62 80.46c-.58 1.22-1.11 2.47-1.51 3.75-.4 1.29-.75 2.59-1.06 3.9-.29 1.31-.56 2.63-.72 3.97l.08.02c.42-1.28.8-2.56 1.2-3.84.39-1.28.78-2.56 1.2-3.82.41-1.27.78-2.55 1.24-3.8.38-1.05.84-2.1 1.49-3-.37 1.58-.79 3.15-1.13 4.74-.19.9-.36 1.8-.49 2.71-.07.46-.13.92-.17 1.38-.05.46-.04.98-.04 1.39-.05 1.78-.28 3.6-.53 5.39-.14.9-.28 1.79-.47 2.67-.09.44-.2.88-.32 1.3-.01.02-.01.04-.02.06-.04-.85-.09-1.71-.11-2.56-.04-1.28-.1-2.55-.06-3.83l-.08-.01c-.17 1.27-.2 2.56-.25 3.84-.03 1.28-.04 2.56-.05 3.84v.8l.52-.59c.4-.46.51-.9.68-1.34.15-.45.28-.89.39-1.34.23-.9.42-1.8.58-2.71.31-1.82.56-3.63.58-5.51-.09-1.79.24-3.58.47-5.39.26-1.8.5-3.62.9-5.4l.12-.54-.35.42c-.88 1.08-1.49 2.29-2.09 3.5z" fill="#c27b55" stroke-width="none" opacity="1" stroke="none"></path></g></g><g id="svga-group-faceshape-wrap"><g id="svga-group-faceshape-single"><path id="SvgjsPath11268" d="M140.4 54.9c-2.2-10-6.3-16-15.2-20.8-9.3-5-25.2-4.8-25.2-4.8s-15.9-.2-25.2 4.8c-8.8 4.8-13 10.8-15.2 20.8-.9 4 0 13.6 0 13.6s1.6 12.3 1.7 18.2c.2 5.8 1.4 18 2.2 25.1.98 7.08 1.46 7.68 1.46 7.68 12.25 14.4 22.69 25.32 25.74 27.9 2.95 2.5 14.4 2.34 17.66.34 3.46-2.12 9.44-8.42 26.53-27.68 0 0 .27-1.05 1.07-8.15s2.13-16.31 2.54-25.19c.2-5.8 1.7-18.2 1.7-18.2.1-.1 1.1-9.6.2-13.6z" fill="#f0c7b1" stroke-width="none" opacity="1" stroke="none"></path><path id="SvgjsPath11269" d="M140.4 54.9c-2.2-10-6.3-16-15.2-20.8-9.3-5-25.2-4.8-25.2-4.8s-15.9-.2-25.2 4.8c-8.8 4.8-13 10.8-15.2 20.8-.9 4 0 13.6 0 13.6s1.6 12.3 1.7 18.2c.2 5.8 1.4 18 2.2 25.1.98 7.08 1.46 7.68 1.46 7.68 12.25 14.4 22.69 25.32 25.74 27.9 2.95 2.5 14.4 2.34 17.66.34 3.46-2.12 9.44-8.42 26.53-27.68 0 0 .27-1.05 1.07-8.15s2.13-16.31 2.54-25.19c.2-5.8 1.7-18.2 1.7-18.2.1-.1 1.1-9.6.2-13.6zm-.03 10.19-.33 3.24-.06.13c-.55 4.29-1.13 8.57-1.59 12.87-.24 2.14-.41 4.33-.56 6.47-.17 2.14-.39 4.28-.63 6.42-.49 4.28-1.14 8.54-1.72 12.82-.3 2.13-.6 4.3-.86 6.43l-.43 3.2-.23 1.59-.13.78-.08.41-10.86 12.02c-3.72 4.04-7.41 8.17-11.32 11.92-.98.92-1.98 1.83-3 2.6-.25.2-.51.36-.77.54-.14.1-.57.32-.71.37-.53.22-1.14.39-1.76.52-2.52.53-5.25.65-7.89.51-1.32-.09-2.64-.24-3.86-.56-.6-.16-1.19-.36-1.66-.61-.1-.07-.51-.34-.64-.46-.25-.21-.49-.43-.74-.66-1.98-1.83-3.9-3.82-5.82-5.78-3.83-3.94-7.58-7.98-11.27-12.06l-5.53-6.13-1.36-1.54-.68-.77-.17-.19s-.17-.3-.2-.42c-.36-1.24-.61-2.62-.85-3.96-.5-2.7-.79-5.41-1.12-8.16-.31-2.74-.65-5.47-.9-8.22-.26-2.74-.51-5.49-.7-8.23-.21-2.73-.23-5.5-.48-8.26-.21-2.76-.48-5.5-.78-8.25-.27-2.76-.67-5.47-.76-8.21-.12-2.74-.16-5.5.06-8.19.06-.67.14-1.34.28-1.97.14-.64.33-1.31.49-1.97.37-1.31.78-2.6 1.27-3.85.98-2.51 2.25-4.89 3.93-6.95 1.64-2.09 3.68-3.83 5.88-5.34 1.1-.76 2.26-1.43 3.44-2.08 1.16-.62 2.38-1.12 3.64-1.58 2.52-.9 5.16-1.51 7.83-1.97 2.67-.48 5.38-.8 8.09-1 2.72-.21 5.43-.32 8.16-.24 5.45.14 10.94.63 16.2 2.02 2.64.7 5.16 1.68 7.52 3.07 2.36 1.36 4.6 2.96 6.51 4.92 1.86 1.99 3.45 4.26 4.57 6.77 1.14 2.5 1.94 5.14 2.54 7.83.23 1.1.29 2.24.33 3.37.03 1.13.01 2.27-.03 3.4-.1 1.13-.16 2.26-.26 3.39z" fill="#c27b55" stroke-width="none" opacity="1" stroke="none"></path></g></g><g id="svga-group-mouth-single-move" transform="matrix(1,0,0,1,-0.5,0)"><g id="svga-group-mouth-single" transform="matrix(0.7999992000000002,0,0,0.7999992000000002,20.21148144985044,24.929739916314674)"><path id="SvgjsPath11995" d="M115.95 118.85c-2.72.91-5.53 1.92-7.88 2.91-2.5 1.06-4.07 2.57-6.76 3.19-2.65.62-5.3-.52-8.01-.37-2.69.14-6.08 2.24-7.87-.41-.95-1.41-2.74.41-1.63 1.37 1.64 1.41 3.91 2.59 5.96 2.73 3.29.23 7.06.3 10.34-.05 6.21-.67 11.72-3.75 17.44-6.41 1.86-1.3 1.02-3.63-1.59-2.96z" fill="#da7c87" stroke-width="none" opacity="1" stroke="none"></path><path id="SvgjsPath11996" d="M107.55 131.3c-1.8-.09-3.6.28-5.4.35-1.81.07-3.62-.07-5.43-.06-.38 0-.47.57-.09.67 3.35.88 7.85 1.04 11.07-.39.3-.13.13-.55-.15-.57z" fill="#e1ac8f" stroke-width="none" opacity="1" stroke="none"></path></g></g><g id="svga-group-eyes-left-move" transform="matrix(1,0,0,1,1,-2)"><g id="svga-group-eyes-left" transform="matrix(0.8999996000000001,0,0,0.8999996000000001,8.020031774822982,8.730034462234485)"><g id="svga-group-eyesback-left"><path id="SvgjsPath11908" d="M80.2 74.2c7.5 0 13.5 5.8 13.5 13s-6 13-13.5 13-13.5-5.8-13.5-13 6-13 13.5-13z" fill="#ffffff" stroke-width="none" opacity="1"></path></g><g id="svga-group-eyesiriswrapper-left" transform="matrix(1,0,0,1,0,0)"><g id="svga-group-eyesiriscontrol-left" transform="matrix(1,0,0,1,0,0)"><g id="svga-group-eyesiris-left"><path id="SvgjsPath11303" d="M80.2 81.6c3.1 0 5.6 2.5 5.6 5.6s-2.5 5.6-5.6 5.6-5.6-2.5-5.6-5.6 2.5-5.6 5.6-5.6z" fill="#946b4f" stroke-width="none" opacity="1"></path><path id="SvgjsPath11304" d="M80.2 84.2c1.7 0 3 1.3 3 3s-1.3 3-3 3-3-1.3-3-3 1.3-3 3-3z" fill="#000000" stroke-width="none" opacity="1"></path><path id="SvgjsPath11305" d="m79.5 84.8-.6-.6c-.2-.2-.5-.3-.8-.3s-.6.1-.8.3c-.2.2-.3.5-.3.8s.1.6.3.8l.6.6c.2.2.5.3.7.3.3 0 .6-.1.7-.3.6-.6.6-1.2.2-1.6zm2.7 5.1c1 0 1-1.5 0-1.5-.9 0-.9 1.5 0 1.5z" fill="#ffffff" stroke-width="none" opacity="1"></path></g></g></g><g id="svga-group-eyesfront-left"><path id="SvgjsPath11916" d="M80.2 73.7c-7.8 0-14.1 6.1-14.1 13.6s6.3 13.6 14.1 13.6 14.1-6.1 14.1-13.6S88 73.7 80.2 73.7zm0 21.9c-5.5 0-10.7-2.8-10.8-3.7-.2-1 .9-4.2 3.2-6.8 2.4-2.6 8-3.5 12.8-1.5s5.9 8 5.9 8c.1 1.8-5.6 4-11.1 4z" fill="#f0c7b1" stroke-width="none" opacity="1" stroke="none"></path><path id="SvgjsPath11917" d="M89.4 86.9c.7 0 3.1 0 2.4-.2-1.2-.4-5.6-3.8-6.8-4.3s-5.5-1.3-6.2-1.3-7.1 2.8-7.7 3.2c-.6.4-2.2 6-2.6 6.3-.2.2.4.5.8.7 0 .1 0 .2-.1.3v.2c0 .1.1.2.1.3.1.2.2.3.3.4.2.2.5.4.7.6.5.3 1 .6 1.6.9 2.1 1 4.4 1.6 6.8 1.8 2.4.2 4.7-.1 7-.7 1.1-.3 2.2-.7 3.3-1.2.5-.3 1-.5 1.5-.9l.6-.6c.2-.2.3-.5.3-.8-.2-1.1-.7-2.2-1.2-3.3-.3-.4-.5-.9-.8-1.4zm1.6 5.5-.6.6c-.5.3-1 .6-1.5.8-1.1.4-2.2.8-3.3 1-2.2.4-4.6.7-6.8.5-2.3-.2-4.5-.8-6.6-1.7-.5-.2-1-.5-1.5-.8-.2-.2-.5-.3-.7-.5-.1-.1-.2-.2-.2-.3 0-.1 0-.1-.1-.1v-.2c0-.2 0-.4.1-.6.4-1 1.6-3.8 2.5-5 1.2-1.5 3.6-3.3 6.9-3.3 1.7 0 3.2.2 4.5.5.5.2 1.1.3 1.6.6 1.1.4 2 1.1 2.8 1.8 1.6 1.6 2.8 3.7 3.3 5.9-.1.3-.2.6-.4.8z" fill="#000000" stroke-width="none" opacity="1" stroke="none"></path></g></g></g><g id="svga-group-eyes-right-move" transform="matrix(1,0,0,1,-1,-2)"><g id="svga-group-eyes-right" transform="matrix(0.8999996000000001,0,0,0.8999996000000001,11.98004860664824,8.730034462234485)"><g id="svga-group-eyesback-right"><path id="SvgjsPath11909" d="M119.8 74.2c7.5 0 13.5 5.8 13.5 13s-6 13-13.5 13-13.5-5.8-13.5-13 6-13 13.5-13z" fill="#ffffff" stroke-width="none" opacity="1"></path></g><g id="svga-group-eyesiriswrapper-right" transform="matrix(1,0,0,1,0,0)"><g id="svga-group-eyesiriscontrol-right" transform="matrix(1,0,0,1,0,0)"><g id="svga-group-eyesiris-right"><path id="SvgjsPath11306" d="M119.8 82.3c2.7 0 4.9 2.2 4.9 4.9s-2.2 4.9-4.9 4.9-4.9-2.2-4.9-4.9 2.2-4.9 4.9-4.9z" fill="#946b4f" stroke-width="none" opacity="1"></path><path id="SvgjsPath11307" d="M119.8 84.6c1.4 0 2.6 1.2 2.6 2.6s-1.2 2.6-2.6 2.6-2.6-1.2-2.6-2.6 1.2-2.6 2.6-2.6z" fill="#000000" stroke-width="none" opacity="1"></path><path id="SvgjsPath11308" d="M119.2 85.1c-.2-.2-.3-.4-.5-.5-.2-.2-.4-.3-.7-.3-.2 0-.5.1-.7.3-.2.2-.3.4-.3.7 0 .2.1.5.3.7.2.2.4.3.5.5.2.2.4.3.7.3.2 0 .5-.1.7-.3.3-.5.3-1.1 0-1.4zm2.4 4.5c.8 0 .9-1.3 0-1.3-.8-.1-.8 1.3 0 1.3z" fill="#ffffff" stroke-width="none" opacity="1"></path></g></g></g><g id="svga-group-eyesfront-right"><path id="SvgjsPath11918" d="M119.8 73.7c-7.8 0-14.1 6.1-14.1 13.6s6.3 13.6 14.1 13.6 14.1-6.1 14.1-13.6-6.3-13.6-14.1-13.6zm.3 20.6c-5.5 0-11.3-1.9-11.1-3.4 0 0 1.2-5.1 5.9-6.9s9.6-.7 12 1.5c2.4 2.3 4.2 4.8 4 5.6-.1.8-5.3 3.2-10.8 3.2z" fill="#f0c7b1" stroke-width="none" opacity="1" stroke="none"></path><path id="SvgjsPath11921" d="M131.9 90c-.3-.3-3.5-4-4.1-4.3s-4-3.2-4.8-3.2-6.4 0-7.6.4-4.2 2.8-4.7 3.4c-.3.4.2.2.7 0-.4.5-.8 1-1.1 1.5-.6 1-1 2-1.3 3 0 .3.1.6.3.8.2.2.4.4.7.5.5.3 1 .5 1.5.8 1 .4 2.1.8 3.2 1 2.2.5 4.4.8 6.6.7 2.2-.1 4.4-.6 6.5-1.3 1-.4 2.1-.8 3-1.5l.3-.3c.1-.1.1-.2.1-.3v-.3c0-.1 0-.1-.1-.2.4-.2 1-.4.8-.7zm-1.2 1.1c-.1.1-.1.2-.2.2-.8.6-1.9 1-2.9 1.4-2.1.7-4.2 1.1-6.4 1.3-2.2.1-4.3-.1-6.5-.4-1.1-.2-2.1-.4-3.2-.8-.5-.2-1-.4-1.5-.7-.2-.1-.5-.3-.7-.5-.2-.2-.3-.4-.3-.7.6-2.1 1.9-4 3.6-5.3.9-.7 1.8-1.1 2.8-1.5.9-.3 1.7-.5 2.6-.6.2 0 .5-.1.7-.1h.7c1.8-.1 3.7.2 5.3.9 1.3.8 2.3 1.8 2.9 2.5.9 1 2.3 2.9 2.8 3.7.1.2.1.3.1.5.2-.1.2 0 .2.1z" fill="#000000" stroke-width="none" opacity="1" stroke="none"></path></g></g></g><g id="svga-group-facehighlight-single"></g><g id="svga-group-eyebrows-left-move" transform="matrix(1,0,0,1,1,3)"><g id="svga-group-eyebrows-left-rotate" transform="matrix(0.9914448595513209,0.1305262060632332,-0.1305262060632332,0.9914448595513209,9.941505789224237,-9.678051460096853)"><g id="svga-group-eyebrows-left" transform="matrix(1.0500002000000002,0,0,1.0500002000000002,-3.9400162940597596,-3.550014200000007)"><path id="SvgjsPath11152" d="M92.8 69.5s-.2 3.9-1 7.1c0 0-16.1-4.6-18-4.8-1.9-.2-8.4 4.1-8.4 4.1l6.5-9.8 3.8.3-.6-.9 8 1.9 7.5 1.2.5 2.8.4-2.8.5 2.8.8-1.9z" fill="#3b3128" stroke-width="none" opacity="1"></path><path id="SvgjsPath11153" d="m92.8 69.5-.1.1c-.1.3-.2.5-.4.8-.1.2-.2.4-.3.7l-.4-2.5-.2-.9-.2.9-.3 1.6-.3-1.6v-.2h-.2l-3.9-.7-1.9-.3c-.6-.1-1.3-.2-1.9-.3-2.6-.6-5.1-1.2-7.7-1.8l-.8-.2.5.8.3.1-3.1-.2h-.2l-.1.1c-1.1 1.7-2.1 3.3-3.2 5l-3.2 5-.4.6.6-.4c1.9-1.3 3.9-2.5 6-3.4.5-.2 1.1-.4 1.6-.6.3-.1.5-.1.8-.1l.4.1.4.1c1.1.3 2.3.6 3.4.9 2.3.7 4.5 1.3 6.8 1.9 2.3.6 4.5 1.2 6.8 1.8l.2.1v-.2c.3-1.2.4-2.4.6-3.6.1-.6.1-1.2.2-1.8 0-.3 0-.6.1-.9V69.6l.1-.1c0 .1 0 0 0 0zm-.1.4-.1.4-.1.9-.3 1.8c-.2 1.1-.4 2.2-.7 3.3-2.2-.7-4.4-1.3-6.6-2-2.3-.7-4.5-1.3-6.8-1.8-1.1-.3-2.3-.5-3.4-.8l-.4-.1-.4-.1c-.3 0-.6 0-.9.1-.6.2-1.1.4-1.6.6-1.9.9-3.7 1.9-5.5 3.1l2.9-4.2c1.1-1.6 2.2-3.2 3.2-4.7l3.6.3.7.1-.4-.7-.1-.1c2.3.6 4.6 1.1 6.9 1.6l3.9.6 3.7.5.5 2.5.2 1.2.2-1.2.3-2 .4 1.9.1.3.1-.3.3-.9c.1-.3.2-.6.3-.8v.5zm-2.9 4.7c0-.8-.1-1.7-.2-2.5-.1-.4-.1-.8-.2-1.2s-.2-.8-.4-1.2c.1.4.1.8.1 1.2 0 .4.1.8.2 1.2.1.8.3 1.7.5 2.5zm-1.2-1.7c-.2-.3-.3-.7-.5-1l-.5-1-1-1.9-.2-.5v.6c0 1.6 0 3.2.1 4.8l.3-.1c-.3-.4-.6-.9-.9-1.3l-.9-1.2c-.3-.4-.6-.8-1-1.2-.3-.4-.7-.8-1.1-1.1.3.4.7.8 1 1.2l.9 1.2c.3.4.6.8.9 1.3.3.4.6.9.8 1.3l.3.5v-.6c0-1.6-.1-3.2-.1-4.8l-.2.1 1.1 1.9.6.9c0 .3.2.6.4.9z" fill="#2c2219" stroke-width="none" opacity="1"></path></g></g></g><g id="svga-group-eyebrows-right-move" transform="matrix(1,0,0,1,-1,3)"><g id="svga-group-eyebrows-right-rotate" transform="matrix(0.9978589223254034,0.06540314316288183,-0.06540314316288183,0.9978589223254034,5.021810874740851,-7.800422012484731)"><g id="svga-group-eyebrows-right" transform="matrix(1.0500002000000002,0,0,1.0500002000000002,-6.082524406294269,-3.6400145218528905)"><path id="SvgjsPath11154" d="M107.2 73.2s.9 3.1 2.3 5.5c0 0 14.9-6.1 16.8-6.5 1.9-.4 9 2 9 2l-8.2-6.9-3.6.8.4-.8-7.5 2.7-7.1 2v2.3l-.9-2.2v2.3l-1.2-1.2z" fill="#3b3128" stroke-width="none" opacity="1"></path><path id="SvgjsPath11155" d="m135.4 74.1-4-3.5c-1.3-1.2-2.7-2.3-4.1-3.5l-.1-.1h-.1l-3 .6.1-.2.4-.7-.8.3c-2.4.8-4.8 1.7-7.2 2.6l-1.8.6-1.8.6-3.7 1.1h-.2v1.5l-.6-1.3-.3-.7v.7l.1 2c-.1-.2-.3-.3-.4-.5-.2-.2-.3-.4-.5-.6l-.1-.1V73.2l.1.2.1.4c.1.2.2.5.2.7.2.5.3.9.5 1.4.3.9.8 1.9 1.2 2.8l.1.2.2-.1c2.1-.8 4.2-1.6 6.4-2.5 2.1-.8 4.2-1.7 6.3-2.5 1.1-.4 2.1-.8 3.2-1.2l.4-.1.4-.1c.3-.1.5-.1.8-.1.6 0 1.1.1 1.7.2 2.2.4 4.4 1.1 6.6 1.8l.6.2-.7-.4zm-8.3-2.1c-.3 0-.6 0-.9.1l-.4.1-.4.1c-1.1.3-2.2.7-3.2 1.1-2.2.8-4.3 1.6-6.4 2.4-2.1.8-4.1 1.7-6.1 2.6-.5-.8-.9-1.7-1.2-2.5-.2-.4-.4-.9-.6-1.4l-.3-.7-.1-.3-.1-.2v-.1c.2.2.3.4.4.6.2.2.3.4.5.7l.2.2V72.8l.6 1.5.4.9v-3.1l3.6-1c1.2-.3 2.5-.7 3.7-1 2.2-.8 4.3-1.5 6.5-2.3v.1l-.3.6.7-.2 3.5-.8c1.3 1.1 2.7 2.2 4 3.3l3.6 2.9c-2-.6-3.9-1.2-6-1.6-.6.1-1.1 0-1.7-.1zm-16 4.7c-.2-.7-.2-1.3-.2-2v-1c0-.3 0-.7.2-1 0 .3.1.7.1 1s.1.7.1 1c-.1.7-.1 1.4-.2 2zm.9-1.5c.1-.3.2-.6.3-.8l.3-.8.6-1.7.2-.4.1.4c.3 1.3.5 2.6.8 3.8h-.3l.6-1.2c.2-.4.4-.8.7-1.1.2-.4.5-.7.7-1.1s.5-.7.8-1c-.3.3-.5.7-.7 1.1-.2.4-.4.7-.7 1.1l-.6 1.2-.6 1.2-.2.4-.1-.4c-.3-1.3-.5-2.6-.8-3.8h.3l-.7 1.6-.4.8c0 .2-.1.4-.3.7z" fill="#2c2219" stroke-width="none" opacity="1"></path></g></g></g><g id="svga-group-beardwrap"><g id="svga-group-beard-single-move" transform="matrix(1,0,0,1,0,-4)"><g id="svga-group-beard-single" transform="matrix(0.8999996000000001,0,0,0.8999996000000001,9.989972592176812,14.99005858670347)"><path id="SvgjsPath11142" d="M95.1 158s-6.6-5.4-8.3-11.6c-1.1-3.8 2.2-5.4 5.4-5.7 3.2-.3 10.7.4 10.7.4l-.1 2.4 1-2.5s5.1.4 7.6 1.5 1.7 4.4.4 7.1c-1.2 2.6-7.3 8.6-7.3 8.6v-1.1l-1 1.4-6.9-.3-2.5-2.2 1 2z" fill="#a46c47" stroke-width="none" opacity="1"></path><path id="SvgjsPath11143" d="M113.3 144.2c-.2-.6-.6-1.2-1.1-1.5-.5-.4-1.1-.6-1.6-.7-2.2-.6-4.5-.9-6.7-1.1h-.1l-.1.1-.7 1.7.1-1.6v-.1h-.1c-2.9-.2-5.7-.4-8.6-.5-1.4 0-2.9 0-4.3.4s-2.9 1.2-3.5 2.7c-.3.7-.3 1.6-.2 2.3.2.8.4 1.4.7 2.1.6 1.4 1.3 2.6 2.1 3.8 1.7 2.4 3.7 4.4 6 6.2l-.6-1.7 2.1 2 .1.1h.1c2.3.2 4.6.3 6.9.5h.2l.1-.1.4-.5v1l.6-.6c1.6-1.6 3.2-3.2 4.7-4.9.7-.9 1.5-1.7 2.1-2.7.7-1 1.1-2.1 1.4-3.2.1-1.3.3-2.5 0-3.7zm-.9 3.3c-.3 1-.8 2.1-1.4 2.9-.6.9-1.3 1.8-2.1 2.6-1.3 1.5-2.6 2.9-4 4.3v-1.2l-.6.8-.9 1.2c-2.2-.1-4.4-.1-6.7-.2l-2.5-2.1-.4-.3.2.4c.3.6.6 1.3.9 2-2-1.9-4-4.1-5.5-6.5-.8-1.2-1.5-2.4-2-3.7-.2-.6-.5-1.3-.6-2-.1-.7-.1-1.3.2-1.9.5-1.2 1.7-2 3-2.4 1.3-.4 2.8-.5 4.2-.6 2.8-.1 5.7.1 8.5.3l-.1 2.3v.8l.3-.7 1-2.3c2.2.3 4.4.6 6.4 1.3.5.2 1 .4 1.4.7.4.3.7.7.8 1.2.4 1 .2 2.1-.1 3.1zm-18.8 1.2-.4-1-.1 1c0 .3-.1.6-.1.9-.5-1-1-2-1.4-3.1-.5-1.3-.9-2.6-1.2-4 .1 1.4.5 2.8.9 4.1.4 1.4 1 2.6 1.7 3.9l.4.7.1-.8c0-.2.1-.5.1-.7.5 1.1 1 2.2 1.6 3.3.7 1.4 1.6 2.7 2.6 3.8-.8-1.3-1.6-2.6-2.2-4-.9-1.3-1.5-2.7-2-4.1zm15.1-.1-.5.1-.7.2c.2-1.1.5-2.2.7-3.3l-1.2 3.6-.1.4.4-.1.5-.1-1.2 2.1-1.4 2.6c.7-.8 1.2-1.6 1.8-2.4.5-.8 1.1-1.7 1.6-2.6l.1-.5zm-14.2-6.1c.2 2.4.7 4.7 1.3 7 .3 1.1.6 2.3 1.1 3.4.4 1.1.9 2.2 1.5 3.2-.8-2.2-1.4-4.5-2-6.8-.7-2.2-1.3-4.5-1.9-6.8zm-5.4 4.4c.8 1.8 1.8 3.5 3 5.1.6.8 1.2 1.6 1.8 2.3.7.7 1.3 1.5 2.1 2.1-1.3-1.5-2.4-3.1-3.6-4.7-1-1.6-2.1-3.2-3.3-4.8zm18 6.9c.5-.6 1-1.3 1.4-1.9l1.2-2.1c.8-1.4 1.5-2.8 2-4.4-.9 1.3-1.7 2.7-2.4 4.1-.8 1.5-1.5 2.9-2.2 4.3zm-3.6-3.9-1.5 6.6c.4-1 .8-2.1 1.1-3.2.3-1.1.6-2.2.8-3.3.2-1.1.4-2.2.6-3.4.2-1.1.3-2.2.3-3.4-.2 1.1-.4 2.2-.7 3.3l-.6 3.4zm-4.7-1.3c0 1.4.1 2.7.3 4 .1.7.2 1.3.4 2s.3 1.3.6 1.9c-.1-1.4-.2-2.7-.4-4-.3-1.3-.5-2.6-.9-3.9z" fill="#955932" stroke-width="none" opacity="1"></path></g></g></g><g id="svga-group-mustache-single-move" transform="matrix(1,0,0,1,0,2)"><g id="svga-group-mustache-single"><path id="SvgjsPath11366" d="M98.2 116.3c.9 0 1 2.9.2 3.4s-19.8-1.6-19.5-2.6c.3-1.1 10.8-1.3 12.3-1.4 1.4-.1 7 .6 7 .6zm3.5.1c-.8.5-.6 3.4 0 3.4.7 0 18.1-1.5 19.5-1.8s-10.4-1.8-12.2-1.8-6.7-.2-7.3.2z" fill="#a46c47" stroke-width="none" opacity="1"></path><path id="SvgjsPath11367" d="M98.7 116.7c-.1-.2-.3-.4-.5-.4-1.8-.2-3.6-.6-5.4-.9-.4-.1-.9-.1-1.4-.2H90c-.9 0-1.8 0-2.7.1-1.8.1-3.6.2-5.4.5-.9.1-1.8.3-2.7.6-.1.1-.2.1-.4.2-.1 0-.1.1-.2.2s-.2.2-.1.5c.2.3.3.3.4.4.1.1.2.1.3.1.5.1.9.2 1.4.3l5.4.8c1.8.3 3.6.7 5.4.9 1.8.2 3.6.3 5.4.3.5 0 .9 0 1.4-.1.3-.1.5-.3.6-.5.1-.2.2-.5.2-.7.1-.5.1-.9 0-1.4-.1-.3-.2-.5-.3-.7zm.1 2c-.1.4-.3.9-.6.9-.4 0-.9 0-1.3-.1-1-.1-2-.2-3.1-.4l.1-.1c1-.6 2-1.1 3-1.7v1.5l.2-1.7v-.1l-.1.1c-.9.4-1.9.9-2.8 1.4l.6-1.4.2-.4-.4.2-3.2 1.1.3-1 .1-.5-.4.2-2.5.9v-1l-.3.1-2.5.7c0-.1.1-.2.1-.3v-.2s0-.1-.1-.1h-.4c-.4.1-.7.1-1.1.2-.7.1-1.4.2-2.2.4l2.2-.2 1.1-.1h.2c0 .2-.1.3-.2.5l-.1.3.3-.1 2.5-.6v1.1l.3-.1 2.4-.9-.3 1-.1.4.4-.2 3.2-1.2-.5 1.4-.1.3c-.7-.1-1.4-.2-2.1-.2-1.8-.1-3.6-.2-5.4-.4-1.8-.2-3.6-.5-5.3-1-.4-.1-.9-.2-1.3-.4-.1 0-.1 0-.1-.1h.1c.8-.2 1.7-.3 2.6-.4 1.8-.2 3.6-.2 5.4-.3l2.7-.2c.9-.1 1.8-.1 2.7-.1 1.8 0 3.6 0 5.4.2.2 0 .3.2.4.4.1.2.2.4.2.6-.1.7-.1 1.2-.2 1.6zm22.8-.8c0-.1-.1-.1-.1-.2-.2-.2-.2-.1-.3-.2-.2-.1-.5-.2-.7-.2l-2.7-.6c-1.8-.3-3.6-.6-5.4-.8-.9-.1-1.8-.2-2.7-.2-.9-.1-1.8 0-2.7.1l-2.7.2-1.3.1c-.4.1-.9 0-1.3.2-.4.3-.5.8-.6 1.2-.1.4-.1.9 0 1.4 0 .2.1.5.2.7.1.1.1.3.3.3H103.4c1.8 0 3.6-.1 5.4-.3 1.8-.2 3.6-.5 5.4-.7 1.8-.2 3.6-.3 5.4-.4l1.4-.1h.4c.1 0 .1 0 .2-.1h.1c.1 0 .1-.1.1-.1-.2-.1-.1-.2-.2-.3zm-2.2.1c-1.8.3-3.6.5-5.4.6-1.8.1-3.6.1-5.4.2-1.2.1-2.5.2-3.7.3v-.2l.2-1.6 1.5 1.2.3.2.1-.4.1-1c.6.4 1.1.8 1.7 1.1l.3.2.1-.3.2-.9 1.8.9.2.1.1-.2.2-.6 1.5.8.1.1.1-.1.4-.5 1 .3h.1l.1-.1.2-.3 2.3.2-2.3-.4h-.1v.1l-.2.3-1-.4h-.1l-.1.1-.4.5-1.5-.9-.2-.1-.1.2-.2.6-1.8-1-.3-.2-.1.3-.2.9c-.6-.4-1.2-.8-1.7-1.1l-.3-.2-.1.4-.1 1-1.5-1.1-.3-.2v.4l-.1 1.7-2.1-1.5-.1-.1v.1l-.1 1.4.2-1.3 2.1 1.8.1.1c-.5.1-1 .1-1.5.2l-1.3.2h-.3s-.1 0-.1-.1c-.1-.2-.2-.4-.2-.6-.1-.4-.1-.9-.1-1.3s.1-.9.5-1.2c.8-.2 1.8-.2 2.7-.1.9.1 1.8.1 2.7.2.9.1 1.8.1 2.7.2l2.7.3 5.3.7c.6.1 1.2.2 1.9.3l-.5-.2z" fill="#955932" stroke-width="none" opacity="1"></path></g></g><g id="svga-group-nose-single-move" transform="matrix(1,0,0,1,0,0)"><g id="svga-group-nose-single"><path id="SvgjsPath11338" d="M99.1 116.5c.67.12 4.53-3.31 4.53-3.31s2.06 1.59 3.62 1.43c1.56-.16 2.44-1.08 3-1.96.56-.88-.89-3.1-1.78-4.41-.9-1.31-3.54-5.22-4.09-7.02-1.07-3.45-3-4.76-4.92-4.64-1.92.12-4.04 1.52-4.6 3.44-.56 1.92-.72 4.28-1.8 5.76s-3.32 4-3.56 4.72c-.24.72-.11 2.8 1.24 3.56 1.73.97 4.3-.51 4.3-.51s3.18 2.78 4.06 2.94z" fill="#f0c7b1" stroke-width="none" opacity="1" stroke="none"></path><path id="SvgjsPath11339" d="M110.28 110.87c-.42-1.01-1.08-1.86-1.81-2.61.57.88 1.08 1.8 1.39 2.76.15.48.24.97.16 1.42-.05.23-.12.41-.26.6-.13.2-.29.39-.47.54-.69.66-1.7.91-2.68.78-.49-.06-.99-.2-1.46-.39-.45-.16-.86-.39-1.29-.62.38-.56.72-1.15 1.02-1.76-.97.91-1.89 1.83-2.87 2.64-.49.4-.98.8-1.51 1.09-.51.3-1.07.55-1.51.52-.12.01-.21-.02-.31-.04-.09-.05-.17-.06-.3-.16-.24-.15-.49-.36-.74-.55-.5-.39-.99-.82-1.49-1.23-.99-.84-1.99-1.69-3.07-2.48a21.8 21.8 0 0 0 1.68 2.24c-.5.22-1.01.41-1.53.52-.64.12-1.3.15-1.84-.1-1.09-.53-1.72-1.83-1.54-2.94.05-.28.13-.5.3-.74.17-.26.36-.53.56-.79.4-.52.82-1.02 1.26-1.52l.66-.74c.26-.28.46-.56.67-.84.41-.57.77-1.18 1.07-1.83.3-.65.48-1.4.59-2.06.12-.68.22-1.35.3-2.02.15-1.35.27-2.69.31-4.04.1-2.7.03-5.42-.51-8.07.05 2.69-.14 5.35-.4 8-.15 1.32-.29 2.65-.5 3.96-.1.66-.2 1.31-.32 1.96-.12.66-.27 1.22-.54 1.79a9.34 9.34 0 0 1-.94 1.65c-.18.26-.37.53-.57.74-.23.26-.45.51-.66.78-.43.53-.85 1.07-1.24 1.63-.2.28-.39.57-.57.88-.2.33-.34.76-.37 1.14-.13 1.57.85 3.05 2.25 3.55.73.23 1.47.11 2.12-.11.54-.19 1.03-.46 1.49-.77.24.28.47.57.71.84.44.5.91.96 1.41 1.42.25.23.51.44.82.65.13.1.36.22.57.3.22.06.44.12.66.11.88 0 1.55-.38 2.14-.76.58-.41 1.1-.86 1.55-1.37.44-.48.84-.99 1.21-1.53.75.66 1.64 1.25 2.68 1.45.54.12 1.11.12 1.66 0 .55-.14 1.07-.41 1.49-.8.21-.19.39-.42.54-.65.17-.23.29-.54.32-.84.06-.55-.08-1.1-.29-1.6z" fill="#c27b55" stroke-width="none" opacity="1" stroke="none"></path></g></g><g id="svga-group-hair-front"><path id="SvgjsPath11379" d="M58.02 71.24s1.85 1.66 2.59 3.33c.74 1.66 0 4.62.55 4.99.55.37 2.4-4.99 2.4-4.99l1.29-21.45 16.09-14.98 6.66 7.21s17.01.92 25.34.55l7.03-5.18 15.54 13.32.55 20.71 2.4 4.62s.74-5.18 1.11-5.92c.37-.74 2.03-2.59 2.03-2.59s1.48-13.5.74-17.38-5.55-13.69-14.24-20.16-35.69-5.55-40.5-5.18c-4.81.37-15.17 3.51-15.17 3.51l.92 1.29-2.59 1.11-.37 1.48s-5.36 3.33-7.4 5.73-3.88 7.03-4.44 10.91-.53 19.07-.53 19.07z" fill="#2f2926" stroke-width="none" opacity="1" stroke="none"></path><path id="SvgjsPath11380" d="M58.07 71.22c.89.82 1.77 1.77 2.4 2.86.69 1.12.63 2.47.62 3.7 0 .31-.01.62 0 .93.01.15.02.3.05.44.01.14.12.27.1.26-.06.02.12-.1.17-.22.08-.12.16-.25.23-.38.14-.27.27-.55.4-.83.49-1.14.91-2.31 1.31-3.49l-.01.06 1.15-21.46.01-.15.11-.11L80.66 37.8l.33-.3.3.33 6.65 7.22-.29-.14c4.21.23 8.43.4 12.65.56 4.22.14 8.44.26 12.65.14l-.16.06 7.07-5.12.14-.1.13.11 15.49 13.37.05.04v.07l.64 20.71-.03-.1 2.42 4.61-.49.08c.22-1.54.45-3.08.75-4.62.08-.39.15-.77.28-1.17.16-.46.42-.75.65-1.08.48-.63.98-1.23 1.5-1.82l-.08.17c.4-4.12.74-8.25.84-12.37.01-2.06.12-4.14-.5-6.04-.6-1.93-1.51-3.79-2.5-5.58-2-3.58-4.5-6.89-7.42-9.75-1.46-1.42-3.02-2.82-4.72-3.86-1.67-1.1-3.65-1.71-5.58-2.32-3.95-1.06-8.05-1.62-12.16-2-4.11-.36-8.24-.51-12.38-.52-2.07 0-4.13.02-6.2.1-1.03.04-2.06.09-3.08.16-1 .09-2.01.25-3.02.42-4.04.76-8.05 1.84-12.02 2.98l.22-.63.92 1.3.29.41-.46.19-2.6 1.09.22-.26-.38 1.48-.04.15-.13.08c-1.41.88-2.81 1.82-4.15 2.81-1.32 1.01-2.66 2.04-3.63 3.34-1.92 2.68-3.12 5.89-3.82 9.12-.35 1.62-.4 3.3-.51 4.98-.09 1.68-.16 3.36-.21 5.04-.1 3.36-.17 6.76-.22 10.08zm-.09.04c-.04-3.4-.04-6.74-.01-10.11.02-1.68.05-3.36.1-5.05.08-1.68.12-3.38.45-5.05.32-1.67.81-3.3 1.43-4.88.63-1.57 1.37-3.12 2.39-4.52 1.03-1.42 2.4-2.47 3.72-3.52 1.35-1.03 2.74-1.99 4.17-2.9l-.17.23.36-1.48.04-.18.18-.08 2.58-1.13-.17.6-.93-1.29-.34-.47.55-.17c3.98-1.2 7.98-2.32 12.08-3.15 1.03-.19 2.06-.38 3.13-.47 1.05-.08 2.09-.13 3.12-.17 2.08-.08 4.16-.11 6.24-.11 4.16 0 8.32.14 12.47.5 4.15.37 8.3.92 12.35 2.04 2 .65 4.03 1.28 5.84 2.47 1.82 1.13 3.36 2.54 4.87 4.01 2.98 2.95 5.51 6.34 7.53 10.01 1 1.84 1.9 3.74 2.51 5.78.32 1.01.45 2.12.48 3.16.02 1.05.02 2.09-.02 3.13-.16 4.16-.54 8.29-.99 12.42l-.01.1-.07.07c-.51.57-1.02 1.16-1.49 1.76-.22.3-.48.62-.57.9-.11.34-.19.73-.27 1.1-.31 1.51-.55 3.05-.78 4.58l-.12.8-.37-.72-2.39-4.63-.03-.05v-.05l-.47-20.72.05.11-15.58-13.27.28.01-6.99 5.23-.07.05h-.09c-4.24.19-8.47.13-12.7.05-4.23-.08-8.45-.26-12.68-.46l-.17-.01-.12-.13-6.67-7.21.63.02-16.13 14.98.12-.25-1.45 21.44v.03l-.01.03c-.43 1.18-.88 2.35-1.41 3.49-.13.29-.27.57-.43.85-.08.14-.16.28-.26.41-.05.07-.1.13-.17.2-.06.05-.16.16-.36.13-.29-.15-.29-.36-.33-.52-.03-.17-.04-.33-.04-.49-.01-.32.01-.63.02-.95.03-1.23.12-2.53-.51-3.6-.59-1.08-1.41-2.01-2.32-2.9z" fill="#201a16" stroke-width="none" opacity="1" stroke="none"></path></g><g id="svga-group-glasses-single-move" transform="matrix(1,0,0,1,0,0)"><g id="svga-group-glasses-single"></g></g></g></g></g><rect id="svga-credit-rect" width="200" height="15" x="0" y="185" fill="#6DAFFE" opacity="0.5" style="display: none;"></rect><text id="svga-credit-text" font-family="Avenir Next, Roboto, Helvetica, Arial, sans-serif" font-size="10px" text-anchor="start" font-weight="400" size="10px" anchor="start" weight="400" fill="#333333" x="33.40447998046875" y="182.60824704170227" style="display: none;"><tspan id="SvgjsTspan11141" dy="13" x="33.40447998046875">Created on AvatarMaker.com</tspan></text></g><defs id="SvgjsDefs11088"></defs></svg>